<?xml version="1.0" encoding="UTF-8"?>
<svg id="Layer_2" data-name="Layer 2" xmlns="http://www.w3.org/2000/svg" viewBox="0 0 24 18.5">
  <defs>
    <style>
      .cls-1 {
        fill: #0274e6;
      }
    </style>
  </defs>
  <g id="Layer_1-2" data-name="Layer 1">
    <g id="Audier">
      <path class="cls-1" d="M24,9.25c0-2.48-1.81-4.52-4.17-4.92C18.19,1.73,15.3,0,12,0S5.81,1.73,4.17,4.33C1.81,4.73,0,6.77,0,9.25s1.81,4.52,4.17,4.92c1.64,2.6,4.53,4.33,7.83,4.33s6.19-1.73,7.83-4.33c2.37-.4,4.17-2.44,4.17-4.92Zm-12,8.25c-4.55,0-8.25-3.7-8.25-8.25S7.45,1,12,1s8.25,3.7,8.25,8.25-3.7,8.25-8.25,8.25ZM2.75,9.25c0,1.32,.28,2.58,.78,3.71-1.48-.59-2.53-2.03-2.53-3.71s1.05-3.12,2.53-3.71c-.5,1.14-.78,2.39-.78,3.71Zm18.5,0c0-1.32-.28-2.58-.78-3.71,1.48,.59,2.53,2.03,2.53,3.71s-1.05,3.12-2.53,3.71c.5-1.14,.78-2.39,.78-3.71Z"/>
      <path class="cls-1" d="M9.5,4.75v5.28c-.3-.17-.63-.28-1-.28-1.1,0-2,.9-2,2s.9,2,2,2,2-.9,2-2V7.75h5v2.28c-.3-.17-.63-.28-1-.28-1.1,0-2,.9-2,2s.9,2,2,2,2-.9,2-2V4.75h-7Zm-1,8c-.55,0-1-.45-1-1s.45-1,1-1,1,.45,1,1-.45,1-1,1Zm6,0c-.55,0-1-.45-1-1s.45-1,1-1,1,.45,1,1-.45,1-1,1Zm1-6h-5v-1h5v1Z"/>
    </g>
  </g>
</svg>