<?xml version="1.0" encoding="UTF-8"?><svg id="Layer_2" xmlns="http://www.w3.org/2000/svg" viewBox="0 0 25 25"><defs><style>.cls-1{fill:#0274e6;}.cls-2{fill:#9a5c8e;}</style></defs><g id="Layer_1-2"><g id="Carter"><path class="cls-1" d="M22,1H10v1h12c1.1,0,2,.9,2,2V20c0,1.1-.9,2-2,2h-7.57l-.12,1h7.69c1.66,0,3-1.34,3-3V4c0-1.66-1.34-3-3-3Z"/><path class="cls-1" d="M5,9h-1v8h1V9Z"/><path class="cls-2" d="M1.5,8h3.5c1,.67,2,1.33,3,2-.17-.67-.33-1.33-.5-2,.83,0,1.5-.67,1.5-1.5V1.5c0-.83-.67-1.5-1.5-1.5H1.5C.67,0,0,.67,0,1.5V6.5c0,.83,.67,1.5,1.5,1.5Zm-.19-6.72c.11-.08,.23-.12,.35-.12,.09,0,.18,.02,.28,.06,.15,.06,.22,.2,.24,.35,.08,.49,.16,.98,.24,1.46,.11,.67,.25,1.33,.41,1.99,0,.03,.02,.06,.04,.11,.13-.24,.24-.46,.36-.68,.35-.66,.69-1.32,1.04-1.98,.06-.12,.13-.24,.23-.33,.1-.09,.22-.14,.34-.14,.17,0,.34,.1,.42,.29,.11,.25,.13,.52,.19,.78,.12,.53,.26,1.05,.45,1.55,.01,.04,.02,.09,.07,.12,.02-.2,.05-.4,.07-.59,.12-.89,.27-1.78,.62-2.61,.05-.13,.11-.25,.18-.38h0c.1-.18,.28-.28,.47-.28,.08,0,.16,.02,.24,.06,.28,.13,.42,.44,.29,.71-.48,1-.61,2.07-.76,3.14-.07,.56-.12,1.12-.1,1.68,0,.12,.02,.24,0,.36-.04,.28-.23,.45-.46,.45-.1,0-.21-.03-.32-.11-.25-.18-.43-.43-.61-.68-.45-.64-.74-1.37-.97-2.11-.01-.03-.02-.07-.03-.1,0,0,0-.01-.02-.03-.16,.31-.31,.61-.47,.92-.25,.49-.46,1-.76,1.46-.12,.19-.26,.38-.44,.53-.1,.08-.2,.12-.29,.12-.12,0-.23-.07-.32-.22-.19-.31-.28-.66-.37-1.01-.3-1.08-.5-2.18-.68-3.28-.05-.31-.1-.61-.15-.92-.04-.23,.01-.43,.2-.57Z"/><path class="cls-1" d="M21,8h1V4H10v4h11Zm-10-3h10v2H11v-2Z"/><path class="cls-1" d="M10,13v-2h11v7h-5v1h6V10H9v3h1Z"/><path class="cls-1" d="M15,19v-1h-6.39l2.29-3.21-.81-.58-2.5,3.5h0l-.21,.29H1v1h1.23l.59,5,.12,1H13.07l.12-1,.59-5h1.23Zm-2.82,5h-1.18v-3.5h-1v3.5h-1.5v-3.5h-1v3.5h-1.5v-3.5h-1v3.5h-1.18l-.59-5H12.77l-.59,5Z"/></g></g></svg>