<?xml version="1.0" encoding="UTF-8"?><svg id="Layer_2" xmlns="http://www.w3.org/2000/svg" viewBox="0 0 24 24"><defs><style>.cls-1{fill:#0274e6;}</style></defs><g id="Layer_1-2"><g id="Image_compare"><path class="cls-1" d="M21,0H3C1.34,0,0,1.34,0,3V21c0,1.66,1.34,3,3,3H21c1.66,0,3-1.34,3-3V3c0-1.66-1.34-3-3-3Zm2,21c0,1.1-.9,2-2,2h-6v-4.03c-.17,.01-.33,.03-.5,.03s-.33-.01-.5-.03v4.03H3c-1.1,0-2-.9-2-2V3C1,1.9,1.9,1,3,1H14V5.03c.17-.01,.33-.03,.5-.03s.33,.01,.5,.03V1h6c1.1,0,2,.9,2,2V21Z"/><path class="cls-1" d="M14.5,6c-3.31,0-6,2.69-6,6s2.69,6,6,6,6-2.69,6-6-2.69-6-6-6Zm0,11c-2.76,0-5-2.24-5-5s2.24-5,5-5,5,2.24,5,5-2.24,5-5,5Z"/><polygon class="cls-1" points="16.19 9.75 15.5 10.43 17.11 12.02 15.54 13.57 16.23 14.25 18.5 12.02 16.19 9.75"/><polygon class="cls-1" points="12.77 14.25 13.46 13.57 11.89 12.02 13.5 10.43 12.81 9.75 10.5 12.02 12.77 14.25"/></g></g></svg>