<svg xmlns="http://www.w3.org/2000/svg" viewBox="0 0 25 25"><defs><style>.cls-1{fill:none;}.cls-2{fill:#0274e6;}</style></defs><g id="Layer_2" data-name="Layer 2"><g id="Layer_1-2" data-name="Layer 1"><g id="Criptopayer"><polygon class="cls-1" points="13.5 6.5 13.5 5.5 13.5 4.5 11.5 4.5 11.5 5.5 11.5 6.5 10.5 6.5 7.5 6.5 7.5 17.5 10.5 17.5 11.5 17.5 11.5 18.5 11.5 19.5 13.5 19.5 13.5 18.5 13.5 17.5 14.5 17.5 17.5 17.5 17.5 14.5 15.5 14.5 15.5 15.5 15.5 16.5 14.5 16.5 10.5 16.5 9.5 16.5 9.5 15.5 9.5 8.5 9.5 7.5 10.5 7.5 14.5 7.5 15.5 7.5 15.5 8.5 15.5 9.5 17.5 9.5 17.5 6.5 14.5 6.5 13.5 6.5"/><path class="cls-1" d="M21.6,15a1,1,0,1,1,0-1h2.29A10.59,10.59,0,0,0,24,12.5,11.42,11.42,0,0,0,22,6V8.65a1,1,0,1,1-1,0V4.78A11.42,11.42,0,0,0,13,1V2.5H12V1A11.5,11.5,0,0,0,1.92,8H3.65a1,1,0,1,1,0,1H1.55a11.41,11.41,0,0,0,0,7H3V14.35a1,1,0,1,1,1,0V17H1.92A11.52,11.52,0,0,0,8,23.08v-.73a1,1,0,1,1,1,0v1.1A11,11,0,0,0,12,24V22.5h1V24a11.5,11.5,0,0,0,10.72-9ZM17,22a1,1,0,1,1,1-1A1,1,0,0,1,17,22Zm1.5-11.5h-4v-2h-4v7h4v-2h4v5h-4v2h-4v-2h-4V5.5h4v-2h4v2h4Z"/><path class="cls-2" d="M14.5,3.5h-4v2h-4v13h4v2h4v-2h4v-5h-4v2h-4v-7h4v2h4v-5h-4Zm3,3v3h-2v-2h-6v9h6v-2h2v3h-4v2h-2v-2h-4V6.5h4v-2h2v2h4Z"/><path class="cls-2" d="M12.5,0A12.5,12.5,0,1,0,25,12.5,12.5,12.5,0,0,0,12.5,0ZM13,24V22.5H12V24a11,11,0,0,1-3-.52v-1.1a1,1,0,1,0-1,0v.73A11.52,11.52,0,0,1,1.92,17H4V14.35a1,1,0,1,0-1,0V16H1.55a11.41,11.41,0,0,1,0-7h2.1a1,1,0,1,0,0-1H1.92A11.5,11.5,0,0,1,12,1V2.5h1V1a11.42,11.42,0,0,1,8,3.75V8.65a1,1,0,1,0,1,0V6a11.42,11.42,0,0,1,2,6.47,10.59,10.59,0,0,1-.11,1.5H21.6a1,1,0,1,0,0,1h2.12A11.5,11.5,0,0,1,13,24Z"/><circle class="cls-2" cx="17" cy="21" r="1"/></g></g></g></svg>