<svg xmlns="http://www.w3.org/2000/svg" viewBox="0 0 24 24"><defs><style>.cls-1{fill:#0274e6;}</style></defs><g id="Слой_2" data-name="Слой 2"><g id="Layer_1" data-name="Layer 1"><g id="Forcaster_2"><path class="cls-1" d="M20,2V3h3V8H22L21,9h2V23H1V9h9L9,8H1V3H4V2H0V24H24V2Z"/><rect class="cls-1" x="9" y="2" width="6" height="1"/><path class="cls-1" d="M5,5H8V0H5ZM7,1V4H6V1Z"/><path class="cls-1" d="M16,5h3V0H16Zm2-4V4H17V1Z"/><path class="cls-1" d="M15,8.55a3.9,3.9,0,0,0-1.94.8l-1.8-1.8-.71.71,1.8,1.8a4.28,4.28,0,0,0-.37.57A3.93,3.93,0,0,0,10,10a4.15,4.15,0,0,0-4,3A4,4,0,0,0,2.1,17.91,4.12,4.12,0,0,0,6.15,21h8.27A3.63,3.63,0,0,0,18,17.47a3.29,3.29,0,0,0-.42-1.57,3.9,3.9,0,0,0,.36-.25l1.8,1.8.71-.71-1.8-1.8a3.9,3.9,0,0,0,.8-1.94H22V12H19.45a3.9,3.9,0,0,0-.8-1.94l1.8-1.8-.71-.71-1.8,1.8A3.9,3.9,0,0,0,16,8.55V6H15ZM14.48,20H6a3,3,0,1,1,.11-6h.62A3.2,3.2,0,0,1,10,11a3.19,3.19,0,0,1,3,3v1h1a2.66,2.66,0,0,1,3,2.55A2.64,2.64,0,0,1,14.48,20Zm4-7.5A3,3,0,0,1,17,15.1a3.69,3.69,0,0,0-3-1.1,4.29,4.29,0,0,0-1.17-2.72A3,3,0,0,1,15.5,9.5,3,3,0,0,1,18.5,12.5Z"/></g></g></g></svg>