<svg xmlns="http://www.w3.org/2000/svg" viewBox="0 0 25 25"><defs><style>.cls-1{fill:#0274e6;}</style></defs><g id="Слой_2" data-name="Слой 2"><g id="Layer_1" data-name="Layer 1"><g id="Fielder"><path class="cls-1" d="M9,8h9V7H9Z"/><rect class="cls-1" x="9" y="13" width="10" height="1"/><rect class="cls-1" x="9" y="19" width="10" height="1"/><path class="cls-1" d="M5,9.75A2.25,2.25,0,1,0,2.75,7.5,2.25,2.25,0,0,0,5,9.75Zm0-3.5A1.25,1.25,0,1,1,3.75,7.5,1.25,1.25,0,0,1,5,6.25Z"/><path class="cls-1" d="M5,21.75A2.25,2.25,0,1,0,2.75,19.5,2.25,2.25,0,0,0,5,21.75Zm0-3.5A1.25,1.25,0,1,1,3.75,19.5,1.25,1.25,0,0,1,5,18.25Z"/><path class="cls-1" d="M5,15.75A2.25,2.25,0,1,0,2.75,13.5,2.25,2.25,0,0,0,5,15.75Zm0-3.5A1.25,1.25,0,1,1,3.75,13.5,1.25,1.25,0,0,1,5,12.25Z"/><polygon class="cls-1" points="22 9 22 24 1 24 1 3 16 3 16 2.29 16 2 0 2 0 25 23 25 23 9 22.71 9 22 9"/><path class="cls-1" d="M22.71,2.29V0H19.29V2.29H17V5.71h2.29V8h3.42V5.71H25V2.29ZM24,4.71H21.71V7H20.29V4.71H18V3.29h2.29V1h1.42V3.29H24Z"/></g></g></g></svg>