<svg xmlns="http://www.w3.org/2000/svg" viewBox="0 0 24 24"><defs><style>.cls-1{fill:#0274e6;}</style></defs><g id="Layer_2" data-name="Layer 2"><g id="Layer_1-2" data-name="Layer 1"><g id="Galerie"><path class="cls-1" d="M12,3.5V8H1V3.5H12m1-1H0V9H13V2.5Z"/><path class="cls-1" d="M23,3.5V16H16V3.5h7m1-1H15V17h9V2.5Z"/><path class="cls-1" d="M23,20v3H16V20h7m1-1H15v5h9V19Z"/><path class="cls-1" d="M12,12V23H1V12H12m1-1H0V24H13V11Z"/><path class="cls-1" d="M4,14a.5.5,0,1,1-.5.5A.5.5,0,0,1,4,14m0-1a1.5,1.5,0,1,0,1.5,1.5A1.5,1.5,0,0,0,4,13Z"/><path class="cls-1" d="M8.54,16.61l.44.53,1,1.22V21H3v-.59l.71-.7.42-.42.07,0,.75.5.78.53.57-.76,1.5-2,.74-1M8.5,15l-3,4L4,18,2,20v2h9V18L8.5,15Z"/><rect class="cls-1" x="1" width="8.5" height="1"/><rect class="cls-1" x="11" width="5" height="1"/><rect class="cls-1" x="17.5" width="5.5" height="1"/></g></g></g></svg>