<svg xmlns="http://www.w3.org/2000/svg" viewBox="0 0 28 28"><defs><style>.cls-1{fill:none;}.cls-2{fill:#0274e6;}</style></defs><g id="Layer_2" data-name="Layer 2"><g id="Layer_1-2" data-name="Layer 1"><g id="Grider"><g id="Grider-2" data-name="Grider"><polygon class="cls-1" points="21 13 20 13 19 13 17 13 16 13 15 13 14 13 13 13 13 14 13 15 13 16 13 17 13 19 13 20 13 21 13 22 13 25 25 25 25 13 22 13 21 13"/><polygon class="cls-2" points="3 3 15 3 15 6 16 6 16 2 2 2 2 16 6 16 6 15 3 15 3 3"/><path class="cls-2" d="M8,8H20v3h1V7H7V21h4V20H8Z"/><path class="cls-2" d="M22,12H12V26H26V12Zm3,13H13V13H25Z"/></g><rect class="cls-1" width="28" height="28"/></g></g></g></svg>