<svg xmlns="http://www.w3.org/2000/svg" viewBox="0 0 24 24"><defs><style>.cls-1{fill:#0274e6;}</style></defs><g id="Слой_2" data-name="Слой 2"><g id="Layer_1" data-name="Layer 1"><g id="Forcaster_1"><rect class="cls-1" x="10" y="2" width="1" height="3"/><rect class="cls-1" x="2" y="10" width="3" height="1"/><rect class="cls-1" x="4.54" y="4.55" width="0.92" height="1.91" transform="translate(-2.42 5.15) rotate(-45)"/><rect class="cls-1" x="4.05" y="15.54" width="1.91" height="0.92" transform="translate(-9.85 8.22) rotate(-45)"/><path class="cls-1" d="M6.75,10v1h3.6l3.9-4.28L13.47,6,9.82,10Z"/><path class="cls-1" d="M24,16V15H21.45a3.9,3.9,0,0,0-.8-1.94l1.8-1.8-.71-.71-1.8,1.8a3.9,3.9,0,0,0-1.94-.8V9H17v2.55a3.9,3.9,0,0,0-1.94.8l-1.8-1.8-.71.71,1.8,1.8a3.27,3.27,0,0,0-.25.36A3.8,3.8,0,0,0,12.5,13a4.15,4.15,0,0,0-4,3,4,4,0,0,0-3.57,2.24,9.31,9.31,0,0,1-1-.87A9.7,9.7,0,0,1,1,10.5a9.91,9.91,0,0,1,3-6.89A9.76,9.76,0,0,1,10.47,1a8.93,8.93,0,0,1,1.94.21A9.58,9.58,0,0,1,16.27,3H14.69v1H18V.57h-.95V2.35A10.61,10.61,0,0,0,13,.31,10.37,10.37,0,0,0,10.47,0,10.69,10.69,0,0,0,3,3.2a10.87,10.87,0,0,0-3,7.3A10.58,10.58,0,0,0,3.2,18a9.44,9.44,0,0,0,1.39,1.13A4,4,0,0,0,8.65,24h8.27a3.63,3.63,0,0,0,3.58-3.53,3.34,3.34,0,0,0-.57-1.81h0l1.8,1.8.71-.71-1.8-1.8a3.9,3.9,0,0,0,.8-1.94Zm-3.5-.5a3,3,0,0,1-1.22,2.4,3.68,3.68,0,0,0-2.84-.9,4.28,4.28,0,0,0-1.51-3A3,3,0,0,1,20.5,15.5ZM8.61,17h.62a3.14,3.14,0,0,1,6.27,0v1h1a2.66,2.66,0,0,1,3,2.55A2.64,2.64,0,0,1,17,23H8.5a3,3,0,1,1,.11-6Z"/></g></g></g></svg>