<svg xmlns="http://www.w3.org/2000/svg" viewBox="0 0 24 22"><defs><style>.cls-1{fill:#fff;}.cls-2{fill:#0274e6;}</style></defs><title>Interactive_map</title><g id="Слой_2" data-name="Слой 2"><g id="Layer_1" data-name="Layer 1"><g id="Interactive_map"><circle class="cls-1" cx="18" cy="15" r="2"/><path class="cls-1" d="M6.7,19.72,6,20.4l-.7-.69c-.43-.41-.83-.84-1.21-1.27A2.11,2.11,0,0,0,4,19a2,2,0,0,0,4,0,2,2,0,0,0-.09-.55C7.53,18.88,7.13,19.3,6.7,19.72Z"/><circle class="cls-1" cx="21" cy="3" r="2"/><path class="cls-2" d="M21,0a3,3,0,0,0-1.2,5.75L18.23,12,18,12a3,3,0,0,0-3,3,2.31,2.31,0,0,0,.05.46L8.64,17.59c-.24.29-.47.58-.73.86A2,2,0,0,1,8,19a2,2,0,0,1-4,0,2.11,2.11,0,0,1,.09-.56c-.26-.28-.49-.57-.72-.85A2.93,2.93,0,0,0,3,19a3,3,0,0,0,6,0A2.31,2.31,0,0,0,9,18.54l6.41-2.13a3,3,0,1,0,3.84-4.16L20.77,6,21,6a3,3,0,0,0,0-6ZM18,13a2,2,0,1,1-2,2A2,2,0,0,1,18,13Zm3-8a2,2,0,1,1,2-2A2,2,0,0,1,21,5Z"/><path class="cls-2" d="M8.75,7A2.75,2.75,0,1,0,6,9.75,2.75,2.75,0,0,0,8.75,7ZM4.25,7A1.75,1.75,0,1,1,6,8.75,1.76,1.76,0,0,1,4.25,7Z"/><path class="cls-2" d="M6,19c2.66-2.59,5.42-6.32,5.93-11.1,0-.3.06-.6.07-.9A6,6,0,0,0,6,1,6,6,0,0,0,0,7c0,.31,0,.63.08,1C.64,12.72,3.39,16.44,6,19ZM1,7A5,5,0,0,1,11,7q0,.41-.06.84A16.88,16.88,0,0,1,6,17.58,17.12,17.12,0,0,1,1.07,7.83C1,7.54,1,7.26,1,7Z"/></g></g></g></svg>