<svg xmlns="http://www.w3.org/2000/svg" viewBox="0 0 23 23"><defs><style>.cls-1{fill:#0274e6;}.cls-2{fill:#9a5c8e;}</style></defs><g id="Layer_2" data-name="Layer 2"><g id="Layer_1-2" data-name="Layer 1"><g id="product_images"><polygon class="cls-1" points="10 3 10 4 22 4 22 22 4 22 4 9 3 9 3 23 23 23 23 3 10 3"/><path class="cls-1" d="M12,10a2,2,0,1,0-2-2A2,2,0,0,0,12,10Zm0-3a1,1,0,1,1-1,1A1,1,0,0,1,12,7Z"/><path class="cls-1" d="M14.82,16.43,10,12,6,16v4l13,0-2-3.55ZM12.5,19H7V16.41l1.71-1.7L10,13.38l1.12,1,3,2.75.28.26h2L17.29,19Z"/><path class="cls-1" d="M15.2,15.24h2.35L20,19.5V14.28L16.11,9.5,13,13.06Z"/><path class="cls-2" d="M5,8l3,2L7.5,8A1.5,1.5,0,0,0,9,6.5v-5A1.5,1.5,0,0,0,7.5,0h-6A1.5,1.5,0,0,0,0,1.5v5A1.5,1.5,0,0,0,1.5,8ZM2.93,7.16a.5.5,0,0,1-.29.12.41.41,0,0,1-.33-.22,4.08,4.08,0,0,1-.37-1C1.65,5,1.45,3.87,1.26,2.77l-.15-.92a.54.54,0,0,1,.2-.57.59.59,0,0,1,.36-.11.86.86,0,0,1,.27.05.42.42,0,0,1,.24.36c.09.48.16,1,.25,1.46.11.67.25,1.33.41,2a.3.3,0,0,0,0,.11c.13-.24.25-.46.36-.69.35-.66.7-1.32,1-2a1.3,1.3,0,0,1,.23-.33A.55.55,0,0,1,4.84,2a.46.46,0,0,1,.42.29,4.33,4.33,0,0,1,.19.79A12.42,12.42,0,0,0,5.9,4.63s0,.09.07.12c0-.2,0-.39.08-.59a10.24,10.24,0,0,1,.62-2.61,2.64,2.64,0,0,1,.18-.38h0A.53.53,0,0,1,7.56,1a.53.53,0,0,1,.29.71A10.29,10.29,0,0,0,7.1,4.8,10.54,10.54,0,0,0,7,6.48a2.17,2.17,0,0,1,0,.36.49.49,0,0,1-.46.45.54.54,0,0,1-.32-.11,2.83,2.83,0,0,1-.61-.68,7.48,7.48,0,0,1-1-2.11l0-.11,0,0-.47.91a15.53,15.53,0,0,1-.76,1.46A2,2,0,0,1,2.93,7.16Z"/></g></g></g></svg>