<?xml version="1.0" encoding="UTF-8"?><svg id="Layer_2" xmlns="http://www.w3.org/2000/svg" viewBox="0 0 24 24"><defs><style>.cls-1{fill:#0274e6;}</style></defs><g id="Layer_1-2"><g id="Searcher"><path class="cls-1" d="M17,0H7C3.13,0,0,3.13,0,7v10c0,3.87,3.13,7,7,7h10c3.87,0,7-3.13,7-7V7c0-3.87-3.13-7-7-7Zm6,17c0,3.31-2.69,6-6,6H7c-3.31,0-6-2.69-6-6V7C1,3.69,3.69,1,7,1h10c3.31,0,6,2.69,6,6v10Z"/><path class="cls-1" d="M16.98,11.37c0-3.1-2.51-5.62-5.62-5.62s-5.62,2.51-5.62,5.62,2.51,5.62,5.62,5.62c1.37,0,2.63-.49,3.6-1.31l2.58,2.58,.71-.71-2.58-2.58c.82-.98,1.31-2.23,1.31-3.6Zm-2.03,2.88c-.21,.26-.45,.5-.71,.71-.79,.64-1.78,1.03-2.88,1.03-2.55,0-4.62-2.07-4.62-4.62s2.07-4.62,4.62-4.62,4.62,2.07,4.62,4.62c0,1.09-.4,2.08-1.03,2.88Z"/><path class="cls-1" d="M8.82,8.8c-.65,.65-1.06,1.56-1.06,2.56s.4,1.9,1.06,2.56l.71-.71c-.47-.47-.77-1.13-.77-1.85s.29-1.38,.77-1.85l-.71-.71Z"/></g></g></svg>