<?xml version="1.0" encoding="UTF-8"?>
<svg id="Layer_2" data-name="Layer 2" xmlns="http://www.w3.org/2000/svg" viewBox="0 0 24 24">
  <defs>
    <style>
      .cls-1 {
        fill: #0274e6;
      }
    </style>
  </defs>
  <g id="Layer_1-2" data-name="Layer 1">
    <path id="Sharinger" class="cls-1" d="M18,12c-2.31,0-4.32,1.31-5.32,3.23l-3.98-1.66c.18-.49,.29-1.01,.29-1.56,0-.63-.13-1.23-.36-1.77l6.65-4.55c.64,.8,1.61,1.32,2.72,1.32,1.93,0,3.5-1.57,3.5-3.5s-1.57-3.5-3.5-3.5-3.5,1.57-3.5,3.5c0,.47,.1,.92,.26,1.33l-6.63,4.53c-.82-1.12-2.13-1.86-3.63-1.86C2.01,7.5,0,9.51,0,12s2.01,4.5,4.5,4.5c1.58,0,2.96-.81,3.76-2.04l4.03,1.69c-.19,.58-.29,1.21-.29,1.85,0,3.31,2.69,6,6,6s6-2.69,6-6-2.69-6-6-6ZM15.5,3.5c0-1.38,1.12-2.5,2.5-2.5s2.5,1.12,2.5,2.5-1.12,2.5-2.5,2.5-2.5-1.12-2.5-2.5ZM4.5,15.5c-1.93,0-3.5-1.57-3.5-3.5s1.57-3.5,3.5-3.5,3.5,1.57,3.5,3.5-1.57,3.5-3.5,3.5Zm13.5,7.5c-2.76,0-5-2.24-5-5s2.24-5,5-5,5,2.24,5,5-2.24,5-5,5Z"/>
  </g>
</svg>