<svg xmlns="http://www.w3.org/2000/svg" viewBox="0 0 24 24"><defs><style>.cls-1{fill:#0274e6;}</style></defs><g id="Layer_2" data-name="Layer 2"><g id="Layer_1-2" data-name="Layer 1"><g id="Spoter"><path class="cls-1" d="M24,0H3V11.69a6.73,6.73,0,0,1,1-.4V1H23V16H12.71a8.05,8.05,0,0,1,.21,1H24Z"/><rect class="cls-1" x="6" y="3" width="15" height="1"/><rect class="cls-1" x="6" y="6" width="8" height="1"/><rect class="cls-1" x="6" y="9" width="13" height="1"/><path class="cls-1" d="M17,12H10a4.7,4.7,0,0,1,.84.5,4.79,4.79,0,0,1,.56.5H17Z"/><path class="cls-1" d="M6,12a6,6,0,1,0,6,6A6,6,0,0,0,6,12Zm5,6a5,5,0,1,1-5-5A5,5,0,0,1,11,18Z"/><path class="cls-1" d="M7.43,16.72V14.5H4.72v2.22H2.5v2.71H4.72V21.5H7.43V19.43H9.5V16.72ZM8.5,18.43H6.43V20.5H5.72V18.43H3.5v-.71H5.72V15.5h.71v2.22H8.5Z"/></g></g></g></svg>