<svg xmlns="http://www.w3.org/2000/svg" viewBox="0 0 24 25"><defs><style>.cls-1{fill:#9a5c8e;}.cls-2{fill:none;}.cls-3{fill:#0274e6;}</style></defs><title>Upsells (2)</title><g id="Слой_2" data-name="Слой 2"><g id="Layer_1" data-name="Layer 1"><g id="Upsells"><path class="cls-1" d="M7.5,0h-6A1.5,1.5,0,0,0,0,1.5v5A1.5,1.5,0,0,0,1.5,8H5l3,2L7.5,8A1.5,1.5,0,0,0,9,6.5v-5A1.5,1.5,0,0,0,7.5,0Zm.35,1.66A10.29,10.29,0,0,0,7.1,4.8,10.54,10.54,0,0,0,7,6.48a2.17,2.17,0,0,1,0,.36.49.49,0,0,1-.46.45.54.54,0,0,1-.32-.11,2.83,2.83,0,0,1-.61-.68,7.48,7.48,0,0,1-1-2.11l0-.11,0,0-.47.91a15.53,15.53,0,0,1-.76,1.46,2,2,0,0,1-.43.53.5.5,0,0,1-.29.12.41.41,0,0,1-.33-.22,4.08,4.08,0,0,1-.37-1C1.65,5,1.45,3.87,1.26,2.77l-.15-.92a.54.54,0,0,1,.2-.57.59.59,0,0,1,.36-.11.86.86,0,0,1,.27.05.42.42,0,0,1,.24.36c.09.48.16,1,.25,1.46.11.67.25,1.33.41,2a.3.3,0,0,0,0,.11c.13-.24.25-.46.36-.69.35-.66.7-1.32,1-2a1.3,1.3,0,0,1,.23-.33A.55.55,0,0,1,4.84,2a.46.46,0,0,1,.42.29,4.33,4.33,0,0,1,.19.79A12.42,12.42,0,0,0,5.9,4.63s0,.09.07.12c0-.2,0-.39.08-.59a10.24,10.24,0,0,1,.62-2.61,2.64,2.64,0,0,1,.18-.38h0A.53.53,0,0,1,7.56,1,.53.53,0,0,1,7.85,1.66Z"/><polygon class="cls-2" points="5.44 24 7.5 24 7.5 18.01 8.5 18.01 8.5 24 10.83 24 10.83 18.01 11.83 18.01 11.83 24 14.17 24 14.17 18.01 15.17 18.01 15.17 24 17.5 24 17.5 18.01 18.5 18.01 18.5 24 20.56 24 21.5 16.01 4.5 16.01 5.44 24"/><path class="cls-3" d="M24,15H14.71L19,10.7l-.71-.7-5,5H2v1H3.49l1.07,9H21.44l1-9H24Zm-3.44,9H18.5V18h-1v6H15.17V18h-1v6H11.83V18h-1v6H8.5V18h-1v6H5.44L4.5,16h17Z"/><path class="cls-3" d="M20,1V2h2.29L15.5,8.79l-2-2L7.29,13H5v1h6V13H8.71L13.5,8.2l2,2L23,2.71V5h1V1Z"/></g></g></g></svg>