<svg 
 xmlns="http://www.w3.org/2000/svg"
 xmlns:xlink="http://www.w3.org/1999/xlink"
 width="512px" height="512px">
<defs>
<linearGradient id="PSgrad_0" x1="0%" x2="70.711%" y1="0%" y2="70.711%">
  <stop offset="0%" stop-color="rgb(9,0,195)" stop-opacity="1" />
  <stop offset="100%" stop-color="rgb(0,117,246)" stop-opacity="1" />
</linearGradient>

</defs>
<path fill-rule="evenodd"  fill="rgb(9, 0, 195)"
 d="M232.0,0.0 L279.999,0.0 C408.130,0.0 511.999,103.869 511.999,232.0 L511.999,279.999 C511.999,408.130 408.130,511.999 279.999,511.999 L232.0,511.999 C103.869,511.999 0.0,408.130 0.0,279.999 L0.0,232.0 C0.0,103.869 103.869,0.0 232.0,0.0 Z"/>
<path fill="url(#PSgrad_0)"
 d="M232.0,0.0 L279.999,0.0 C408.130,0.0 511.999,103.869 511.999,232.0 L511.999,279.999 C511.999,408.130 408.130,511.999 279.999,511.999 L232.0,511.999 C103.869,511.999 0.0,408.130 0.0,279.999 L0.0,232.0 C0.0,103.869 103.869,0.0 232.0,0.0 Z"/>
<path fill-rule="evenodd"  fill="rgb(255, 255, 255)"
 d="M249.718,420.688 C218.810,420.688 188.531,411.608 164.458,395.119 C161.934,393.390 160.324,390.652 160.41,387.606 C159.760,384.561 160.839,381.575 163.3,379.413 L177.916,364.509 C181.326,361.100 186.560,360.513 190.642,363.87 C207.697,373.834 228.125,379.515 249.718,379.515 C302.19,379.515 344.569,346.86 344.569,304.994 C344.569,263.974 302.92,230.543 249.880,230.472 C249.879,230.472 249.876,230.472 249.875,230.472 C246.916,230.472 244.340,229.405 242.404,227.468 C240.466,225.530 239.399,222.953 239.402,220.213 L239.422,199.541 C239.428,193.894 244.30,189.299 249.680,189.299 L249.718,189.299 C324.736,189.299 385.767,241.200 385.767,304.994 C385.767,368.788 324.736,420.688 249.718,420.688 ZM351.876,135.466 L336.963,150.370 C333.554,153.778 328.319,154.368 324.237,151.792 C307.183,141.44 286.754,135.363 265.162,135.363 C212.860,135.363 170.309,168.793 170.309,209.885 C170.309,250.906 212.788,284.336 265.2,284.407 C265.6,284.407 265.9,284.407 265.13,284.407 C267.966,284.407 270.541,285.474 272.476,287.411 C274.414,289.351 275.479,291.928 275.477,294.668 L275.456,315.337 C275.453,320.985 270.851,325.580 265.200,325.580 L265.162,325.580 C190.144,325.580 129.112,273.679 129.112,209.885 C129.112,146.91 190.144,94.191 265.162,94.191 C296.67,94.191 326.346,103.272 350.421,119.759 C352.946,121.490 354.555,124.227 354.837,127.273 C355.119,130.318 354.39,133.304 351.876,135.466 Z"/>
<path fill-rule="evenodd"  fill="rgb(255, 240, 0)"
 d="M385.990,29.999 L441.990,29.999 C464.81,29.999 481.990,47.908 481.990,69.999 C481.990,92.91 464.81,110.0 441.990,110.0 L385.990,110.0 C363.899,110.0 345.990,92.91 345.990,69.999 C345.990,47.908 363.899,29.999 385.990,29.999 Z"/>
<path fill-rule="evenodd"  fill="rgb(0, 0, 0)"
 d="M455.138,76.338 L435.581,76.338 C435.933,77.940 436.766,79.205 438.80,80.134 C439.393,81.63 441.27,81.527 442.981,81.527 C444.327,81.527 445.520,81.328 446.561,80.927 C447.602,80.527 448.571,79.894 449.468,79.29 L453.456,83.353 C451.21,86.140 447.466,87.534 442.789,87.534 C439.874,87.534 437.295,86.965 435.53,85.828 C432.810,84.691 431.80,83.113 429.863,81.95 C428.645,79.77 428.37,76.787 428.37,74.224 C428.37,71.693 428.638,69.411 429.839,67.376 C431.40,65.342 432.690,63.757 434.788,62.619 C436.886,61.483 439.233,60.913 441.828,60.913 C444.358,60.913 446.649,61.459 448.699,62.547 C450.749,63.637 452.359,65.198 453.528,67.232 C454.697,69.267 455.282,71.629 455.282,74.320 C455.282,74.416 455.234,75.89 455.138,76.338 ZM446.105,68.49 C444.951,67.72 443.541,66.583 441.876,66.583 C440.178,66.583 438.753,67.64 437.599,68.25 C436.446,68.986 435.741,70.300 435.485,71.965 L448.219,71.965 C447.962,70.331 447.258,69.27 446.105,68.49 ZM419.188,80.686 C419.748,81.280 420.541,81.575 421.566,81.575 C422.751,81.575 423.760,81.256 424.594,80.614 L426.612,85.900 C425.874,86.445 424.970,86.854 423.897,87.125 C422.823,87.397 421.694,87.534 420.509,87.534 C417.434,87.534 415.55,86.749 413.374,85.179 C411.692,83.610 410.851,81.304 410.851,78.260 L410.851,67.641 L406.863,67.641 L406.863,61.874 L410.851,61.874 L410.851,55.580 L418.347,55.580 L418.347,61.874 L424.786,61.874 L424.786,67.641 L418.347,67.641 L418.347,78.164 C418.347,79.253 418.627,80.94 419.188,80.686 ZM399.671,57.694 C398.293,57.694 397.172,57.294 396.307,56.493 C395.443,55.692 395.10,54.699 395.10,53.514 C395.10,52.329 395.443,51.335 396.307,50.534 C397.172,49.734 398.293,49.333 399.671,49.333 C401.48,49.333 402.170,49.718 403.35,50.486 C403.900,51.255 404.332,52.216 404.332,53.369 C404.332,54.619 403.900,55.652 403.35,56.469 C402.170,57.286 401.48,57.694 399.671,57.694 ZM381.908,51.495 L389.404,51.495 L389.404,87.149 L381.908,87.149 L381.908,51.495 ZM403.419,87.149 L395.923,87.149 L395.923,61.298 L403.419,61.298 L403.419,87.149 Z"/>
</svg>